<svg width="178" height="161" viewBox="0 0 178 161" fill="none" xmlns="http://www.w3.org/2000/svg">
<path d="M176.438 61.5697C176.374 61.5697 176.312 61.55 176.26 61.5133L89.8955 0.910003C89.6327 0.726435 89.3204 0.628332 89.0006 0.628882C88.6808 0.629431 88.3689 0.728605 88.1066 0.913076L2.36474 61.5127C2.29693 61.5606 2.21299 61.5794 2.1314 61.565C2.04981 61.5506 1.97725 61.5041 1.92968 61.4357C1.88211 61.3674 1.86343 61.2828 1.87775 61.2006C1.89207 61.1184 1.93822 61.0453 2.00603 60.9974L87.748 0.39777C88.1151 0.13955 88.5519 0.00074435 88.9996 2.9853e-06C89.4473 -0.000738379 89.8845 0.136619 90.2525 0.393622L176.616 60.9967C176.671 61.035 176.712 61.0899 176.734 61.1533C176.755 61.2167 176.756 61.2854 176.736 61.3493C176.716 61.4132 176.676 61.4691 176.623 61.5087C176.569 61.5483 176.504 61.5697 176.438 61.5697L176.438 61.5697Z" fill="#3F3D56"/>
<path d="M7.26562 63.7179L89.0869 2.61761L171.529 68.0654L93.3027 114.791L50.8325 105.037L7.26562 63.7179Z" fill="#E6E6E6"/>
<path d="M54.4161 143.652H13.9944C13.7462 143.652 13.5004 143.603 13.271 143.508C13.0416 143.412 12.8331 143.272 12.6575 143.096C12.4819 142.919 12.3426 142.709 12.2475 142.478C12.1524 142.247 12.1035 141.999 12.1035 141.749C12.1035 141.499 12.1524 141.251 12.2475 141.02C12.3426 140.789 12.4819 140.58 12.6575 140.403C12.8331 140.226 13.0416 140.086 13.271 139.991C13.5004 139.895 13.7462 139.846 13.9944 139.846H54.4161C54.6643 139.846 54.9102 139.895 55.1396 139.991C55.369 140.086 55.5774 140.226 55.7531 140.403C55.9287 140.58 56.068 140.789 56.1631 141.02C56.2581 141.251 56.307 141.499 56.307 141.749C56.307 141.999 56.2581 142.247 56.1631 142.478C56.068 142.709 55.9287 142.919 55.7531 143.096C55.5774 143.272 55.369 143.412 55.1396 143.508C54.9102 143.603 54.6643 143.652 54.4161 143.652Z" fill="#FEB240"/>
<path d="M28.4968 135.471H13.9944C13.7462 135.471 13.5004 135.422 13.271 135.327C13.0416 135.231 12.8331 135.091 12.6575 134.915C12.4819 134.738 12.3426 134.528 12.2475 134.297C12.1524 134.066 12.1035 133.818 12.1035 133.568C12.1035 133.318 12.1524 133.07 12.2475 132.839C12.3426 132.608 12.4819 132.399 12.6575 132.222C12.8331 132.045 13.0416 131.905 13.271 131.81C13.5004 131.714 13.7462 131.665 13.9944 131.665H28.4968C28.745 131.665 28.9909 131.714 29.2203 131.81C29.4497 131.905 29.6581 132.045 29.8338 132.222C30.0094 132.399 30.1487 132.608 30.2438 132.839C30.3388 133.07 30.3877 133.318 30.3877 133.568C30.3877 133.818 30.3388 134.066 30.2438 134.297C30.1487 134.528 30.0094 134.738 29.8338 134.915C29.6581 135.091 29.4497 135.231 29.2203 135.327C28.9909 135.422 28.745 135.471 28.4968 135.471Z" fill="#FEB240"/>
<path d="M90.2366 97.7499C89.9293 97.7502 89.625 97.6902 89.3406 97.5731L38.8789 76.4759V10.4385C38.8796 9.85452 39.1101 9.29469 39.5199 8.88177C39.9297 8.46886 40.4853 8.23658 41.0649 8.2359H137.872C138.451 8.23658 139.007 8.46886 139.417 8.88177C139.827 9.29469 140.057 9.85452 140.058 10.4385V76.522L139.963 76.5629L91.1597 97.5628C90.8674 97.6865 90.5536 97.7501 90.2366 97.7499Z" fill="white"/>
<path d="M90.2365 97.9071C89.9089 97.9075 89.5843 97.8435 89.281 97.7188L38.7227 76.5811V10.4385C38.7234 9.81284 38.9703 9.21301 39.4094 8.77059C39.8485 8.32818 40.4438 8.07932 41.0648 8.07861H137.872C138.493 8.07932 139.088 8.32818 139.527 8.77059C139.966 9.21301 140.213 9.81284 140.214 10.4385V76.6259L91.2209 97.7074C90.9093 97.8395 90.5745 97.9074 90.2365 97.9071ZM39.3472 76.1607L89.5192 97.1369C89.9872 97.3282 90.5112 97.3251 90.9769 97.1282L139.589 76.2105V10.4385C139.589 9.9797 139.408 9.53983 139.086 9.2154C138.764 8.89097 138.327 8.70846 137.872 8.70792H41.0648C40.6094 8.70846 40.1729 8.89097 39.8509 9.2154C39.5289 9.53983 39.3478 9.9797 39.3472 10.4385L39.3472 76.1607Z" fill="#3F3D56"/>
<path d="M175.814 60.9404H175.752L139.902 76.3647L90.8519 97.4684C90.6602 97.5497 90.4546 97.592 90.2466 97.5931C90.0387 97.5942 89.8326 97.554 89.6401 97.4747L39.0351 76.3206L2.30459 60.9655L2.24848 60.9404H2.18597C1.60641 60.941 1.05077 61.1733 0.640963 61.5862C0.231154 61.9991 0.000643064 62.559 0 63.1429V158.797C0.000643889 159.381 0.231154 159.941 0.640963 160.354C1.05077 160.767 1.60641 160.999 2.18597 161H175.814C176.394 160.999 176.949 160.767 177.359 160.354C177.769 159.941 177.999 159.381 178 158.797V63.1429C177.999 62.559 177.769 61.9991 177.359 61.5862C176.949 61.1733 176.394 60.941 175.814 60.9404ZM177.375 158.797C177.375 159.215 177.211 159.615 176.918 159.91C176.625 160.205 176.228 160.371 175.814 160.371H2.18597C1.77191 160.371 1.37485 160.205 1.08207 159.91C0.789286 159.615 0.624727 159.215 0.624561 158.797V63.1429C0.625128 62.7361 0.781751 62.3452 1.06169 62.052C1.34162 61.7588 1.7232 61.586 2.12665 61.5697L39.0351 77.0002L89.3998 98.0568C89.945 98.2803 90.5559 98.2769 91.0986 98.0474L139.902 77.0475L175.877 61.5697C176.279 61.5872 176.66 61.7605 176.939 62.0535C177.218 62.3466 177.375 62.7367 177.375 63.1429V158.797Z" fill="#3F3D56"/>
<path d="M89.7319 79.0241C87.869 79.0277 86.0555 78.4207 84.565 77.2948L84.4726 77.2249L65.0141 62.2136C64.1129 61.5178 63.3565 60.6501 62.7882 59.6599C62.2199 58.6696 61.8507 57.5763 61.7017 56.4423C61.5527 55.3083 61.6269 54.1558 61.9199 53.0507C62.213 51.9455 62.7192 50.9094 63.4097 50.0014C64.1002 49.0934 64.9614 48.3313 65.9441 47.7586C66.9269 47.186 68.012 46.814 69.1375 46.6639C70.2629 46.5138 71.4067 46.5885 72.5035 46.8837C73.6003 47.179 74.6287 47.6891 75.5298 48.3848L88.1336 58.1226L117.918 18.984C118.609 18.0762 119.471 17.3144 120.453 16.7421C121.436 16.1698 122.522 15.7982 123.647 15.6485C124.773 15.4988 125.916 15.5739 127.013 15.8696C128.11 16.1653 129.138 16.6758 130.039 17.3718L129.854 17.6252L130.044 17.3755C131.861 18.7828 133.05 20.859 133.35 23.1486C133.65 25.4381 133.036 27.754 131.644 29.5883L96.6097 75.6247C95.7995 76.6856 94.7575 77.5441 93.5648 78.1336C92.372 78.7231 91.0605 79.0279 89.7319 79.0241Z" fill="#FEB240"/>
</svg>
