<svg width="268" height="247" viewBox="0 0 268 247" fill="none" xmlns="http://www.w3.org/2000/svg">
<path d="M259.588 213.527H8.70708C6.47604 213.527 4.33637 212.641 2.75879 211.063C1.1812 209.486 0.294922 207.346 0.294922 205.115C91.2391 194.545 180.474 194.545 268 205.115C268 207.346 267.114 209.486 265.536 211.063C263.958 212.641 261.819 213.527 259.588 213.527Z" fill="#2F2E41"/>
<path d="M268 205.61L0.294922 205.116L31.321 152.909L31.4694 152.661V37.604C31.4693 36.2075 31.7443 34.8246 32.2787 33.5343C32.813 32.2441 33.5963 31.0717 34.5838 30.0842C35.5713 29.0967 36.7436 28.3134 38.0338 27.779C39.324 27.2446 40.7069 26.9696 42.1034 26.9697H224.707C226.103 26.9696 227.486 27.2446 228.776 27.779C230.067 28.3134 231.239 29.0967 232.226 30.0842C233.214 31.0717 233.997 32.2441 234.532 33.5343C235.066 34.8246 235.341 36.2075 235.341 37.604V153.453L268 205.61Z" fill="#3F3D56"/>
<path d="M41.8613 34.3916C40.9429 34.3926 40.0625 34.7579 39.4131 35.4073C38.7638 36.0567 38.3985 36.9372 38.3975 37.8555V142.764C38.3985 143.682 38.7638 144.562 39.4132 145.212C40.0625 145.861 40.943 146.227 41.8613 146.228H226.434C227.353 146.226 228.233 145.861 228.882 145.212C229.532 144.562 229.897 143.682 229.898 142.764V37.8555C229.897 36.9372 229.532 36.0567 228.882 35.4074C228.233 34.758 227.353 34.3927 226.434 34.3916H41.8613Z" fill="white"/>
<path d="M42.6346 160.084C42.3508 160.084 42.0731 160.166 41.8341 160.319C41.5952 160.472 41.4049 160.69 41.2859 160.948L31.7258 181.732C31.6217 181.958 31.5762 182.207 31.5934 182.455C31.6106 182.703 31.69 182.943 31.8243 183.153C31.9586 183.363 32.1435 183.535 32.3619 183.655C32.5803 183.774 32.8253 183.837 33.0742 183.837H234.118C234.371 183.837 234.62 183.772 234.841 183.649C235.062 183.526 235.248 183.348 235.381 183.133C235.514 182.917 235.589 182.672 235.601 182.419C235.612 182.166 235.559 181.915 235.445 181.688L225.054 160.905C224.931 160.657 224.742 160.45 224.507 160.305C224.273 160.16 224.002 160.083 223.726 160.084H42.6346Z" fill="#2F2E41"/>
<path d="M133.405 32.6597C134.635 32.6597 135.632 31.6627 135.632 30.4329C135.632 29.203 134.635 28.2061 133.405 28.2061C132.176 28.2061 131.179 29.203 131.179 30.4329C131.179 31.6627 132.176 32.6597 133.405 32.6597Z" fill="white"/>
<path d="M113.644 187.795C113.318 187.795 113.001 187.903 112.742 188.102C112.483 188.3 112.296 188.578 112.211 188.893L109.813 197.801C109.754 198.021 109.746 198.251 109.79 198.475C109.834 198.698 109.929 198.909 110.068 199.09C110.206 199.271 110.385 199.417 110.589 199.518C110.793 199.619 111.018 199.671 111.246 199.671H156.852C157.088 199.671 157.322 199.615 157.532 199.506C157.742 199.398 157.924 199.241 158.061 199.048C158.198 198.855 158.287 198.632 158.321 198.398C158.355 198.164 158.332 197.925 158.254 197.701L155.171 188.794C155.07 188.502 154.881 188.249 154.629 188.07C154.378 187.891 154.077 187.795 153.768 187.795H113.644Z" fill="#2F2E41"/>
<path d="M235.341 150.929V152.908H31.3213L31.4748 152.661V150.929H235.341Z" fill="#2F2E41"/>
<path d="M229.65 69.2789C248.78 69.2789 264.288 53.7703 264.288 34.6395C264.288 15.5086 248.78 0 229.65 0C210.52 0 195.012 15.5086 195.012 34.6395C195.012 53.7703 210.52 69.2789 229.65 69.2789Z" fill="#FEB240"/>
<path d="M244.001 49.7326H215.301C214.776 49.7321 214.273 49.5234 213.902 49.1523C213.53 48.7812 213.322 48.278 213.321 47.7532V30.4335C213.322 29.9087 213.531 29.4056 213.902 29.0345C214.273 28.6634 214.776 28.4547 215.301 28.4541H244.001C244.526 28.4547 245.029 28.6634 245.4 29.0345C245.771 29.4056 245.98 29.9087 245.98 30.4335V47.7532C245.98 48.278 245.771 48.7812 245.4 49.1523C245.029 49.5234 244.526 49.7321 244.001 49.7326ZM215.301 30.4335V47.7532H244.002L244.001 30.4335L215.301 30.4335Z" fill="white"/>
<path d="M238.557 30.4337H220.743V22.5161C220.743 16.7814 224.489 12.6191 229.65 12.6191C234.811 12.6191 238.557 16.7814 238.557 22.5161L238.557 30.4337ZM222.723 28.4543H236.578V22.5161C236.578 17.8544 233.729 14.5985 229.65 14.5985C225.571 14.5985 222.723 17.8545 222.723 22.5161L222.723 28.4543Z" fill="white"/>
<path d="M229.65 40.5779C230.743 40.5779 231.63 39.6917 231.63 38.5985C231.63 37.5053 230.743 36.6191 229.65 36.6191C228.557 36.6191 227.671 37.5053 227.671 38.5985C227.671 39.6917 228.557 40.5779 229.65 40.5779Z" fill="white"/>
<path d="M205.47 110.644H62.8251C62.1248 110.643 61.4534 110.365 60.9582 109.869C60.463 109.374 60.1844 108.703 60.1836 108.002V72.6172C60.1844 71.9169 60.463 71.2454 60.9582 70.7502C61.4534 70.255 62.1248 69.9764 62.8251 69.9756H205.47C206.17 69.9764 206.841 70.255 207.337 70.7502C207.832 71.2454 208.11 71.9169 208.111 72.6172V108.002C208.11 108.703 207.832 109.374 207.337 109.869C206.841 110.365 206.17 110.643 205.47 110.644ZM62.8251 71.0323C62.4049 71.0327 62.0021 71.1999 61.7049 71.497C61.4078 71.7941 61.2407 72.197 61.2402 72.6172V108.002C61.2407 108.423 61.4078 108.826 61.7049 109.123C62.0021 109.42 62.4049 109.587 62.8251 109.587H205.47C205.89 109.587 206.293 109.42 206.59 109.123C206.887 108.826 207.054 108.423 207.055 108.002V72.6172C207.054 72.197 206.887 71.7941 206.59 71.497C206.293 71.1998 205.89 71.0327 205.47 71.0322L62.8251 71.0323Z" fill="#E6E6E6"/>
<path d="M84.9889 99.7128C90.9316 99.7128 95.7492 94.895 95.7492 88.9521C95.7492 83.0091 90.9316 78.1914 84.9889 78.1914C79.0461 78.1914 74.2285 83.0091 74.2285 88.9521C74.2285 94.895 79.0461 99.7128 84.9889 99.7128Z" fill="#E6E6E6"/>
<path d="M109.84 81.7783C109.604 81.778 109.371 81.8241 109.153 81.914C108.935 82.004 108.737 82.136 108.57 82.3026C108.403 82.4692 108.271 82.667 108.181 82.8848C108.09 83.1026 108.044 83.336 108.044 83.5718C108.044 83.8075 108.09 84.041 108.181 84.2587C108.271 84.4765 108.403 84.6744 108.57 84.8409C108.737 85.0075 108.935 85.1395 109.153 85.2295C109.371 85.3195 109.604 85.3656 109.84 85.3652H194.386C194.861 85.3652 195.317 85.1763 195.654 84.8399C195.99 84.5036 196.179 84.0474 196.179 83.5718C196.179 83.0961 195.99 82.6399 195.654 82.3036C195.317 81.9673 194.861 81.7783 194.386 81.7783H109.84Z" fill="#E6E6E6"/>
<path d="M109.84 92.5391C109.365 92.5391 108.908 92.728 108.572 93.0643C108.236 93.4007 108.047 93.8569 108.047 94.3325C108.047 94.8082 108.236 95.2643 108.572 95.6007C108.908 95.937 109.365 96.126 109.84 96.126H146.22C146.696 96.126 147.152 95.937 147.488 95.6007C147.825 95.2643 148.014 94.8082 148.014 94.3325C148.014 93.8569 147.825 93.4007 147.488 93.0643C147.152 92.728 146.696 92.5391 146.22 92.5391H109.84Z" fill="#E6E6E6"/>
</svg>
